<?xml version="1.0" encoding="utf-8"?>
<!-- Generator: Adobe Illustrator 22.1.0, SVG Export Plug-In . SVG Version: 6.00 Build 0)  -->
<svg version="1.1" xmlns="http://www.w3.org/2000/svg" xmlns:xlink="http://www.w3.org/1999/xlink" x="0px" y="0px"
	 viewBox="0 0 250 383.1" style="enable-background:new 0 0 250 383.1;" xml:space="preserve">
<style type="text/css">
	.st0{fill:#B3B2B2;}
	.st1{fill:#E8E8E8;}
</style>
<g id="Layer_1">
	<path d="M233.5,4c6.9,0,12.5,5.6,12.5,12.5v317c0,6.9-5.6,12.5-12.5,12.5h-217C9.6,346,4,340.4,4,333.5v-317C4,9.6,9.6,4,16.5,4
		H233.5 M233.5,0h-217C7.4,0,0,7.4,0,16.5v317c0,9.1,7.4,16.5,16.5,16.5h217c9.1,0,16.5-7.4,16.5-16.5v-317C250,7.4,242.6,0,233.5,0
		L233.5,0z"/>
	<g>
		<polygon class="st0" points="8.5,358.6 1.5,347.8 1.5,337.8 248.5,337.8 248.5,347.8 241.7,358.6 		"/>
		<path d="M247,339.3v8l-6.1,9.7H9.3L3,347.3v-8H247 M250,336.3H0v11.9l7.7,11.9h234.9l7.4-11.9V336.3L250,336.3z"/>
	</g>
	<path d="M198.9,320l17.9,28.2l-17.9,28.2H51.4l-17.9-28.2L51.4,320H198.9 M202.6,313.3H47.8l-22.3,34.9l22.3,34.9h154.4l22.3-34.9
		L202.6,313.3L202.6,313.3z"/>
	<g>
		<polygon class="st1" points="49.8,379.8 29.5,348.2 49.8,316.7 200.6,316.7 220.8,348.2 200.6,379.8 		"/>
	</g>
	<g>
		<rect x="0" y="333.8" width="1.2" height="3.5"/>
	</g>
	<g>
		<rect x="248.8" y="333.2" width="1.2" height="3.5"/>
	</g>
</g>
<g id="Layer_2">
</g>
<g id="Layer_3">
	<g>
		<polygon class="st0" points="29.5,348.2 49.8,379.8 200.6,379.8 220.8,348.2 220.5,347.7 200.3,379.1 52.5,376.4 32.9,342.9 		"/>
	</g>
</g>
</svg>
