<?xml version="1.0" encoding="UTF-8" standalone="no"?><!DOCTYPE svg PUBLIC "-//W3C//DTD SVG 1.1//EN" "http://www.w3.org/Graphics/SVG/1.1/DTD/svg11.dtd"><svg width="100%" height="100%" viewBox="0 0 586 107" version="1.1" xmlns="http://www.w3.org/2000/svg" xmlns:xlink="http://www.w3.org/1999/xlink" xml:space="preserve" xmlns:serif="http://www.serif.com/" style="fill-rule:evenodd;clip-rule:evenodd;stroke-linejoin:round;stroke-miterlimit:2;"><path d="M585.901,25.459l-21.216,-12.022l-522.254,0l22.276,38.187l-22.276,38.542l522.608,0l20.862,-12.376l-0,-52.331Z" style="fill:#d3d3d3;fill-rule:nonzero;"/><path d="M3.536,77.437l-0,-48.796l42.431,-24.398l42.431,24.398l0,48.796l-42.431,24.397l-42.431,-24.397Z" style="fill:#fff;fill-rule:nonzero;"/><path d="M45.967,8.133l38.895,22.276l0,44.906l-38.895,22.276l-38.895,-22.276l0,-44.552l38.895,-22.63m0,-8.133l-45.967,26.519l0,53.039l45.967,26.519l45.967,-26.519l0,-53.039l-45.967,-26.519Z" style="fill:#8d8d8e;fill-rule:nonzero;"/></svg>