<?xml version="1.0" encoding="utf-8"?>
<!-- Generator: Adobe Illustrator 22.1.0, SVG Export Plug-In . SVG Version: 6.00 Build 0)  -->
<svg version="1.1" id="Layer_1" xmlns="http://www.w3.org/2000/svg" xmlns:xlink="http://www.w3.org/1999/xlink" x="0px" y="0px"
	 viewBox="0 0 180 252" style="enable-background:new 0 0 180 252;" xml:space="preserve">
<style type="text/css">
	.st0{opacity:0.9;}
	.st1{fill:#D3D3D3;}
	.st2{fill:none;stroke:#FFFFFF;stroke-width:0.5;stroke-miterlimit:10;}
	.st3{font-family:'Prototype';}
	.st4{font-size:18.0268px;}
	.st5{fill:#B3B2B2;}
	.st6{fill:#FFFFFF;}
	.st7{opacity:0.15;}
	.st8{fill:#010202;}
	.st9{fill:#8D8D8E;}
</style>
<g class="st0">
	<polygon class="st1" points="172.8,12.9 166.8,9.5 19.1,9.5 25.4,20.3 19.1,31.2 166.9,31.2 172.8,27.7 	"/>
</g>
<g>
	<text transform="matrix(1 0 0 1 15.1073 26.8523)" class="st2 st3 st4">2</text>
</g>
<polygon class="st2" points="31.7,31.2 166.9,31.2 172.8,27.7 172.8,12.9 166.8,9.5 26.6,9.5 20.1,5.7 7.1,13.2 7.1,28.2 8.5,28.9 
	20.1,35.7 27.9,31.2 "/>
<path class="st2" d="M29.6,43.5"/>
<g>
	<polygon class="st5" points="10.9,238.5 7.9,233.8 10.9,229.2 169.1,229.2 172.1,233.8 169.1,238.5 	"/>
	<g>
		<path class="st6" d="M169.1,229.3l2.9,4.5l-2.9,4.5h-128h-5.8H13.6h-2.7L8,233.8l2.9-4.5h24.3h5.8H169.1 M169.2,229H41.1h-5.8
			H10.8l-3.1,4.8l3.1,4.8h2.8h21.6h5.8h128.1l3-4.8L169.2,229L169.2,229z"/>
	</g>
</g>
<g class="st7">
	<polygon class="st8" points="171.9,233.2 168.8,238 90,238 11.2,238 8.1,233.2 7.7,233.8 10.8,238.6 90,238.6 169.2,238.6 
		172.3,233.8 	"/>
</g>
<g>
	<g>
		<polygon class="st6" points="8.1,27.6 8.1,13.8 20.1,6.9 32.1,13.8 32.1,27.6 20.1,34.5 		"/>
		<g>
			<path class="st9" d="M20.1,8l11,6.3V27l-11,6.3L9.1,27V14.3L20.1,8 M20.1,5.7l-13,7.5v15l13,7.5l13-7.5v-15L20.1,5.7L20.1,5.7z"
				/>
		</g>
	</g>
	<g>
		<defs>
			<polygon id="SVGID_1_" points="9.1,14.3 9.1,27 20.1,33.3 31.1,27 31.1,14.3 20.1,8 			"/>
		</defs>
		<clipPath id="SVGID_2_">
			<use xlink:href="#SVGID_1_"  style="overflow:visible;"/>
		</clipPath>
	</g>
</g>
<g>
	<g>
		<path class="st6" d="M57.1,223.3l6.7,10.5l-6.7,10.5H40.3H27.4H10.5l-6.7-10.5l6.7-10.5h16.8h12.9H57.1 M57.2,223h-0.1H40.3H27.4
			H10.5h-0.1l-0.1,0.1l-6.7,10.5l-0.1,0.1l0.1,0.1l6.7,10.5l0.1,0.1h0.1h16.8h12.9h16.8h0.1l0.1-0.1l6.7-10.5l0.1-0.1l-0.1-0.1
			l-6.7-10.5L57.2,223L57.2,223z"/>
	</g>
</g>
<g>
	<defs>
		<rect id="SVGID_3_" y="0" width="180" height="252"/>
	</defs>
	<clipPath id="SVGID_4_">
		<use xlink:href="#SVGID_3_"  style="overflow:visible;"/>
	</clipPath>
</g>
<g>
	<g>
		<polygon class="st6" points="11.1,243.3 5,233.8 11.1,224.3 56.5,224.3 62.6,233.8 56.5,243.3 		"/>
		<path class="st9" d="M56,225.3l5.4,8.5l-5.4,8.5H40.3H27.4H11.6l-5.4-8.5l5.4-8.5h15.7h12.9H56 M57.1,223.3H40.3H27.4H10.5
			l-6.7,10.5l6.7,10.5h16.8h12.9h16.8l6.7-10.5L57.1,223.3L57.1,223.3z"/>
	</g>
</g>
</svg>
