<?xml version="1.0" encoding="UTF-8" standalone="no"?><!DOCTYPE svg PUBLIC "-//W3C//DTD SVG 1.1//EN" "http://www.w3.org/Graphics/SVG/1.1/DTD/svg11.dtd"><svg width="100%" height="100%" viewBox="0 0 180 252" version="1.1" xmlns="http://www.w3.org/2000/svg" xmlns:xlink="http://www.w3.org/1999/xlink" xml:space="preserve" xmlns:serif="http://www.serif.com/" style="fill-rule:evenodd;clip-rule:evenodd;stroke-miterlimit:10;"><g opacity="0.9"><path d="M172.8,12.9l-6,-3.4l-147.7,0l6.3,10.8l-6.3,10.9l147.8,-0l5.9,-3.5l0,-14.8Z" style="fill:#d3d3d3;fill-rule:nonzero;"/></g><g><text x="15.107px" y="26.852px" style="font-family:'ArialMT', 'Arial', sans-serif;font-size:18.027px;fill:none;stroke:#fff;stroke-width:0.5px;">2</text></g><path d="M27.9,31.2l139,0l5.9,-3.5l0,-14.8l-6,-3.4l-140.2,0l-6.5,-3.8l-13,7.5l0,15l1.4,0.7l11.6,6.8l7.8,-4.5Z" style="fill:none;fill-rule:nonzero;stroke:#fff;stroke-width:0.5px;"/><g><path d="M10.9,238.5l-3,-4.7l3,-4.6l158.2,-0l3,4.6l-3,4.7l-158.2,0Z" style="fill:#b3b2b2;fill-rule:nonzero;"/><g><path d="M169.1,229.3l2.9,4.5l-2.9,4.5l-158.2,0l-2.9,-4.5l2.9,-4.5l158.2,0m0.1,-0.3l-158.4,0l-3.1,4.8l3.1,4.8l158.3,0l3,-4.8l-2.9,-4.8Z" style="fill:#fff;fill-rule:nonzero;"/></g></g><g opacity="0.15"><path d="M171.9,233.2l-3.1,4.8l-157.6,-0l-3.1,-4.8l-0.4,0.6l3.1,4.8l158.4,-0l3.1,-4.8l-0.4,-0.6Z" style="fill:#010202;fill-rule:nonzero;"/></g><g><g><path d="M8.1,27.6l0,-13.8l12,-6.9l12,6.9l0,13.8l-12,6.9l-12,-6.9Z" style="fill:#fff;fill-rule:nonzero;"/><g><path d="M20.1,8l11,6.3l0,12.7l-11,6.3l-11,-6.3l-0,-12.7l11,-6.3m0,-2.3l-13,7.5l0,15l13,7.5l13,-7.5l0,-15l-13,-7.5Z" style="fill:#8d8d8e;fill-rule:nonzero;"/></g></g></g></svg>