<?xml version="1.0" encoding="UTF-8" standalone="no"?><!DOCTYPE svg PUBLIC "-//W3C//DTD SVG 1.1//EN" "http://www.w3.org/Graphics/SVG/1.1/DTD/svg11.dtd"><svg width="100%" height="100%" viewBox="0 0 180 252" version="1.1" xmlns="http://www.w3.org/2000/svg" xmlns:xlink="http://www.w3.org/1999/xlink" xml:space="preserve" xmlns:serif="http://www.serif.com/" style="fill-rule:evenodd;clip-rule:evenodd;stroke-miterlimit:10;"><g id="Layer_1_1_"><g opacity="0.9"><path d="M172.9,12.8l-6,-3.4l-147.7,0l6.3,10.8l-6.3,10.9l147.8,0l5.9,-3.5l0,-14.8Z" style="fill:#d3d3d3;fill-rule:nonzero;"/></g><path d="M166.3,234l-152.659,0l-2.941,-3.547l-0,-69.553l158.6,0l0,68.7l-3,4.4Z" style="fill:#fff;fill-opacity:0.85;fill-rule:nonzero;"/><path d="M169.3,151.3l3.1,4.8l-3.1,4.8l0,68.7l-3,4.4l-102.6,0l-50.084,-0.269l-2.911,-3.631l-0.105,-69.2l0.2,0l-3.1,-4.8l3.1,-4.8l158.5,0m0.3,-0.4l-159,0l-0.1,0.2l-3.1,4.8l-0.2,0.3l0.2,0.3l2.8,4.3l0.105,69.3l3.286,4.089l50.309,0.511l102.5,0l0.1,-0.2l3.1,-4.4l0.1,-0.1l-0,-69l3,-4.6l0.2,-0.3l-0.2,-0.3l-3,-4.8l-0.1,-0.1Z" style="fill:#fff;fill-rule:nonzero;"/><path d="M28,31.1l139,0l5.9,-3.5l0,-14.8l-6,-3.4l-140.2,0l-6.5,-3.8l-13,7.5l0,15l1.4,0.8l11.6,6.7l7.8,-4.5Z" style="fill:none;fill-rule:nonzero;stroke:#fff;stroke-width:0.5px;"/><path d="M7.8,156.1l3.1,4.8l158.4,0l3,-4.8l-3,-4.8l-158.4,0l-3.1,4.8Z" style="fill:#b3b2b2;fill-rule:nonzero;"/><path d="M10.7,161.1l158.6,0" style="fill:none;fill-rule:nonzero;stroke:#fff;stroke-width:0.5px;"/><g opacity="0.15"><path d="M172,155.5l-3.1,4.8l-157.6,0l-3.1,-4.8l-0.4,0.6l3.1,4.8l158.4,0l3.1,-4.8l-0.4,-0.6Z" style="fill-rule:nonzero;"/></g><path d="M8.2,27.5l0,-13.8l12,-6.9l12,6.9l0,13.8l-12,6.9l-12,-6.9Z" style="fill:#fff;fill-rule:nonzero;"/><path d="M20.2,7.9l11,6.3l0,12.7l-11,6.3l-11,-6.3l0,-12.6l11,-6.4m0,-2.3l-13,7.5l0,15l13,7.5l13,-7.5l0,-15l-13,-7.5Z" style="fill:#8d8d8e;fill-rule:nonzero;"/></g></svg>